<svg width="32" height="32" viewBox="0 0 32 32" fill="none" xmlns="http://www.w3.org/2000/svg">
<path d="M9.33338 28C8.60005 28 7.97249 27.7391 7.45071 27.2173C6.92893 26.6956 6.6676 26.0676 6.66671 25.3333V8C6.28893 8 5.97249 7.872 5.71738 7.616C5.46227 7.36 5.33427 7.04356 5.33338 6.66667C5.33249 6.28978 5.46049 5.97333 5.71738 5.71733C5.97427 5.46133 6.29071 5.33333 6.66671 5.33333H12C12 4.95556 12.128 4.63911 12.384 4.384C12.64 4.12889 12.9565 4.00089 13.3334 4H18.6667C19.0445 4 19.3614 4.128 19.6174 4.384C19.8734 4.64 20.0009 4.95644 20 5.33333H25.3334C25.7112 5.33333 26.028 5.46133 26.284 5.71733C26.54 5.97333 26.6676 6.28978 26.6667 6.66667C26.6658 7.04356 26.5378 7.36044 26.2827 7.61733C26.0276 7.87422 25.7112 8.00178 25.3334 8V25.3333C25.3334 26.0667 25.0725 26.6947 24.5507 27.2173C24.0289 27.74 23.4009 28.0009 22.6667 28H9.33338ZM13.3334 22.6667C13.7112 22.6667 14.028 22.5387 14.284 22.2827C14.54 22.0267 14.6676 21.7102 14.6667 21.3333V12C14.6667 11.6222 14.5387 11.3058 14.2827 11.0507C14.0267 10.7956 13.7103 10.6676 13.3334 10.6667C12.9565 10.6658 12.64 10.7938 12.384 11.0507C12.128 11.3076 12 11.624 12 12V21.3333C12 21.7111 12.128 22.028 12.384 22.284C12.64 22.54 12.9565 22.6676 13.3334 22.6667ZM18.6667 22.6667C19.0445 22.6667 19.3614 22.5387 19.6174 22.2827C19.8734 22.0267 20.0009 21.7102 20 21.3333V12C20 11.6222 19.872 11.3058 19.616 11.0507C19.36 10.7956 19.0436 10.6676 18.6667 10.6667C18.2898 10.6658 17.9734 10.7938 17.7174 11.0507C17.4614 11.3076 17.3334 11.624 17.3334 12V21.3333C17.3334 21.7111 17.4614 22.028 17.7174 22.284C17.9734 22.54 18.2898 22.6676 18.6667 22.6667Z" fill="white"/>
</svg>
