<svg width="32" height="32" viewBox="0 0 32 32" fill="none" xmlns="http://www.w3.org/2000/svg">
<rect width="32" height="32" rx="8"/>
<path d="M24.015 14.9981C23.77 13.2351 22.9521 11.6014 21.6873 10.3489C20.4225 9.09644 18.781 8.29453 17.0156 8.06674C15.2502 7.83894 13.4589 8.19791 11.9176 9.08834C10.3763 9.97876 9.17051 11.3513 8.48598 12.9944M7.98505 8.9869V12.9944H11.9925M7.98505 17.0019C8.23006 18.7649 9.04796 20.3986 10.3128 21.6511C11.5775 22.9036 13.2191 23.7055 14.9844 23.9333C16.7498 24.1611 18.5411 23.8021 20.0824 22.9117C21.6237 22.0212 22.8295 20.6487 23.5141 19.0056M24.015 23.0131V19.0056H20.0075" stroke="#000000" stroke-width="2.66667" stroke-linecap="round" stroke-linejoin="round"/>
</svg>
