<svg width="32" height="32" viewBox="0 0 32 32" fill="none" xmlns="http://www.w3.org/2000/svg">
<path d="M6.66667 28C5.93333 28 5.30578 27.7391 4.784 27.2173C4.26222 26.6956 4.00089 26.0676 4 25.3333V6.66667C4 5.93333 4.26133 5.30578 4.784 4.784C5.30667 4.26222 5.93422 4.00089 6.66667 4H21.5667C21.9222 4 22.2613 4.06667 22.584 4.2C22.9067 4.33333 23.1898 4.52222 23.4333 4.76667L27.2333 8.56667C27.4778 8.81111 27.6667 9.09467 27.8 9.41733C27.9333 9.74 28 10.0787 28 10.4333V25.3333C28 26.0667 27.7391 26.6947 27.2173 27.2173C26.6956 27.74 26.0676 28.0009 25.3333 28H6.66667ZM16 24C17.1111 24 18.0556 23.6111 18.8333 22.8333C19.6111 22.0556 20 21.1111 20 20C20 18.8889 19.6111 17.9444 18.8333 17.1667C18.0556 16.3889 17.1111 16 16 16C14.8889 16 13.9444 16.3889 13.1667 17.1667C12.3889 17.9444 12 18.8889 12 20C12 21.1111 12.3889 22.0556 13.1667 22.8333C13.9444 23.6111 14.8889 24 16 24ZM9.33333 13.3333H18.6667C19.0444 13.3333 19.3613 13.2053 19.6173 12.9493C19.8733 12.6933 20.0009 12.3769 20 12V9.33333C20 8.95556 19.872 8.63911 19.616 8.384C19.36 8.12889 19.0436 8.00089 18.6667 8H9.33333C8.95556 8 8.63911 8.128 8.384 8.384C8.12889 8.64 8.00089 8.95644 8 9.33333V12C8 12.3778 8.128 12.6947 8.384 12.9507C8.64 13.2067 8.95644 13.3342 9.33333 13.3333Z" fill="black"/>
</svg>
